<?xml version="1.0" encoding="utf-8"?>
<!-- Generator: Adobe Illustrator 26.3.1, SVG Export Plug-In . SVG Version: 6.00 Build 0)  -->
<svg version="1.1" id="Layer_1" xmlns="http://www.w3.org/2000/svg" xmlns:xlink="http://www.w3.org/1999/xlink" x="0px" y="0px"
	 viewBox="0 0 1920 1080" style="enable-background:new 0 0 1920 1080;" xml:space="preserve">
<style type="text/css">
	.st0{fill:#0F151E;stroke:#000000;stroke-miterlimit:10;}
	.st1{fill:#FFFFFF;stroke:#000000;stroke-miterlimit:10;}
	.st2{fill:#FFE5D2;}
</style>
<g id="Layer_1_00000126306201720178103260000011964492717928208811_">
	<rect x="-24.3" y="-24.2" class="st0" width="1866.2" height="1254.1"/>
	<rect x="-84.4" y="-69.2" class="st1" width="2064.3" height="1309.6"/>
</g>
<g id="Layer_2_00000052064274667852651270000004670839651266624657_">
	<path id="_x3C_Path_x3E_" class="st2" d="M321.7,1033.8c-1.1-80.9-50.6-153.4-126.5-182.3c-76.4-29.1-166.5-4.8-218.2,58.3
		c-51.4,62.9-59.2,153.5-17.3,223.6c41.8,70,123.7,106,203.6,91.6c91-16.4,156.1-98.1,158.4-189.1
		C321.6,1035.2,321.7,1034.5,321.7,1033.8z M-9.7,952.1c33.7-56.4,101.1-87.4,165.9-75c69.4,13.3,120.4,70.5,128.8,139h-95.4
		c-8.3-27.4-32-48-62.6-48c-29.6,0-55.1,20.6-63.1,48h-95C-28.7,993.5-21.4,971.6-9.7,952.1z M157.3,1033.8
		c-2,38.8-60.7,39.4-60.7,0C96.6,994.4,155.4,995,157.3,1033.8z M181.3,1183.6c-63.3,22.7-135.1,2.8-177.8-49.1
		c-19.3-23.7-31.4-52.6-34.6-83h94.9c7.9,27.4,33.7,48,63.2,48c30.7,0,54.4-20.7,62.6-48H285C277.8,1110.7,238.7,1163,181.3,1183.6
		L181.3,1183.6z	">
<animateTransform  accumulate="none" additive="replace" attributeName="transform" attributeType="XML" calcMode="linear" dur="3s" fill="remove" repeatCount="indefinite" restart="always" type="translate" values="0,1200;0,-1200;">
			</animateTransform>
	</path>
	<path id="_x3C_Path_x3E__00000114756467791288561460000004882184806787895212_" class="st2" d="M974.7,874.4
		c-1.1-80.9-50.6-153.4-126.5-182.3c-76.4-29.1-166.5-4.8-218.2,58.3c-51.4,62.9-59.2,153.5-17.3,223.6
		c41.8,70,123.7,106,203.6,91.6c91-16.4,156.1-98.1,158.4-189.1C974.6,875.8,974.7,875.1,974.7,874.4z M643.3,792.7
		c33.7-56.4,101.1-87.4,165.9-75c69.4,13.3,120.4,70.5,128.8,139h-95.4c-8.3-27.4-32-48-62.6-48c-29.6,0-55.1,20.6-63.1,48h-95
		C624.3,834.1,631.6,812.2,643.3,792.7z M810.3,874.4c-2,38.8-60.7,39.4-60.7,0S808.4,835.6,810.3,874.4z M834.3,1024.2
		c-63.3,22.7-135.1,2.8-177.8-49.1c-19.3-23.7-31.4-52.6-34.6-83h94.9c7.9,27.4,33.7,48,63.2,48c30.7,0,54.4-20.7,62.6-48H938
		C930.8,951.3,891.7,1003.6,834.3,1024.2L834.3,1024.2z	">
<animateTransform  accumulate="none" additive="replace" attributeName="transform" attributeType="XML" calcMode="linear" dur="3s" fill="remove" repeatCount="indefinite" restart="always" type="translate" values="0,1200;0,-1200;">
			</animateTransform>
	</path>
	<path id="_x3C_Path_x3E__00000088133859329654475460000017654880642354241946_" class="st2" d="M546.3,610.9
		c-1.1-80.9-50.6-153.4-126.5-182.3c-76.4-29.1-166.5-4.8-218.2,58.3c-51.4,62.9-59.2,153.5-17.3,223.6
		c41.8,70,123.7,106,203.6,91.6C478.9,785.7,544,704,546.3,613C546.2,612.3,546.3,611.6,546.3,610.9z M214.9,529.2
		c33.7-56.4,101.1-87.4,165.9-75c69.4,13.3,120.4,70.5,128.8,139h-95.4c-8.3-27.4-32-48-62.6-48c-29.6,0-55.1,20.6-63.1,48h-95
		C195.9,570.6,203.2,548.7,214.9,529.2z M381.9,610.9c-2,38.8-60.7,39.4-60.7,0C321.2,571.5,380,572.1,381.9,610.9z M405.9,760.7
		c-63.3,22.7-135.1,2.8-177.8-49.1c-19.3-23.7-31.4-52.6-34.6-83h94.9c7.9,27.4,33.7,48,63.2,48c30.7,0,54.4-20.7,62.6-48h95.4
		C502.4,687.8,463.3,740.1,405.9,760.7L405.9,760.7z	">
<animateTransform  accumulate="none" additive="replace" attributeName="transform" attributeType="XML" calcMode="linear" dur="2s" fill="remove" repeatCount="indefinite" restart="always" type="translate" values="0,1200;0,-1200;">
			</animateTransform>
	</path>
	<path id="_x3C_Path_x3E__00000127753736578883725740000005061213238558771894_" class="st2" d="M1849.2,267.2
		c-1.1-80.9-50.6-153.4-126.5-182.3c-76.4-29.1-166.5-4.8-218.2,58.3c-51.4,62.9-59.2,153.5-17.3,223.6
		c41.8,70,123.7,106,203.6,91.6c91-16.4,156.1-98.1,158.4-189.1C1849.1,268.6,1849.2,267.9,1849.2,267.2z M1517.8,185.5
		c33.7-56.4,101.1-87.4,165.9-75c69.4,13.3,120.4,70.5,128.8,139h-95.4c-8.3-27.4-32-48-62.6-48c-29.6,0-55.1,20.6-63.1,48h-95
		C1498.8,226.9,1506.1,205,1517.8,185.5z M1684.8,267.2c-2,38.8-60.7,39.4-60.7,0S1682.9,228.4,1684.8,267.2z M1708.8,417
		c-63.3,22.7-135.1,2.8-177.8-49.1c-19.3-23.7-31.4-52.6-34.6-83h94.9c7.9,27.4,33.7,48,63.2,48c30.7,0,54.4-20.7,62.6-48h95.4
		C1805.3,344.1,1766.2,396.4,1708.8,417L1708.8,417z	">
<animateTransform  accumulate="none" additive="replace" attributeName="transform" attributeType="XML" calcMode="linear" dur="1s" fill="remove" repeatCount="indefinite" restart="always" type="translate" values="0,1200;0,-1200;">
			</animateTransform>
	</path>
	<path id="_x3C_Path_x3E__00000011749036829509330560000015925366965193893293_" class="st2" d="M1221.9,517.8
		c-1.1-80.9-50.6-153.4-126.5-182.3c-76.4-29.1-166.5-4.8-218.2,58.3c-51.4,62.9-59.2,153.5-17.3,223.6
		c41.8,70,123.7,106,203.6,91.6c91-16.4,156.1-98.1,158.4-189.1C1221.8,519.2,1221.9,518.5,1221.9,517.8z M890.5,436.1
		c33.7-56.4,101.1-87.4,165.9-75c69.4,13.3,120.4,70.5,128.8,139h-95.4c-8.3-27.4-32-48-62.6-48c-29.6,0-55.1,20.6-63.1,48h-95
		C871.5,477.5,878.8,455.6,890.5,436.1z M1057.5,517.8c-2,38.8-60.7,39.4-60.7,0S1055.6,479,1057.5,517.8z M1081.5,667.6
		c-63.3,22.7-135.1,2.8-177.8-49.1c-19.3-23.7-31.4-52.6-34.6-83H964c7.9,27.4,33.7,48,63.2,48c30.7,0,54.4-20.7,62.6-48h95.4
		C1178,594.7,1138.9,647,1081.5,667.6L1081.5,667.6z	">
<animateTransform  accumulate="none" additive="replace" attributeName="transform" attributeType="XML" calcMode="linear" dur="2.5s" fill="remove" repeatCount="indefinite" restart="always" type="translate" values="0,1200;0,-1200;">
			</animateTransform>
	</path>
	<path id="_x3C_Path_x3E__00000121994965084817395830000014000987133524700088_" class="st2" d="M291.1,161.2
		C290,80.3,240.5,7.8,164.6-21.1C88.2-50.2-1.9-25.9-53.6,37.2c-51.4,62.9-59.2,153.5-17.3,223.6c41.8,70,123.7,106,203.6,91.6
		c91-16.4,156.1-98.1,158.4-189.1C291,162.6,291.1,161.9,291.1,161.2z M-40.3,79.5C-6.6,23.1,60.8-7.9,125.6,4.5
		C195,17.8,246,75,254.4,143.5H159c-8.3-27.4-32-48-62.6-48c-29.6,0-55.1,20.6-63.1,48h-95C-59.3,120.9-52,99-40.3,79.5z
		 M126.7,161.2c-2,38.8-60.7,39.4-60.7,0S124.8,122.4,126.7,161.2z M150.7,311c-63.3,22.7-135.1,2.8-177.8-49.1
		c-19.3-23.7-31.4-52.6-34.6-83h94.9c7.9,27.4,33.7,48,63.2,48c30.7,0,54.4-20.7,62.6-48h95.4C247.2,238.1,208.1,290.4,150.7,311
		L150.7,311z	">
<animateTransform  accumulate="none" additive="replace" attributeName="transform" attributeType="XML" calcMode="linear" dur="1.5s" fill="remove" repeatCount="indefinite" restart="always" type="translate" values="0,1200;0,-1200;">
			</animateTransform>
	</path>
	<path id="_x3C_Path_x3E__00000128473237453726389740000003057116137026962840_" class="st2" d="M907.3,284.9
		c-1.1-80.9-50.6-153.4-126.5-182.3c-76.4-29.1-166.5-4.8-218.2,58.3c-51.4,62.9-59.2,153.5-17.3,223.6
		c41.8,70,123.7,106,203.6,91.6C839.9,459.7,905,378,907.3,287C907.2,286.3,907.3,285.6,907.3,284.9z M575.9,203.2
		c33.7-56.4,101.1-87.4,165.9-75c69.4,13.3,120.4,70.5,128.8,139h-95.4c-8.3-27.4-32-48-62.6-48c-29.6,0-55.1,20.6-63.1,48h-95
		C556.9,244.6,564.2,222.7,575.9,203.2z M742.9,284.9c-2,38.8-60.7,39.4-60.7,0S741,246.1,742.9,284.9z M766.9,434.7
		c-63.3,22.7-135.1,2.8-177.8-49.1c-19.3-23.7-31.4-52.6-34.6-83h94.9c7.9,27.4,33.7,48,63.2,48c30.7,0,54.4-20.7,62.6-48h95.4
		C863.4,361.8,824.3,414.1,766.9,434.7L766.9,434.7z	">
<animateTransform  accumulate="none" additive="replace" attributeName="transform" attributeType="XML" calcMode="linear" dur="1.25s" fill="remove" repeatCount="indefinite" restart="always" type="translate" values="0,1200;0,-1200;">
			</animateTransform>
	</path>
	<path id="_x3C_Path_x3E__00000079462097602972845680000015548068104318458538_" class="st2" d="M704.1,1261
		c-1.1-80.9-50.6-153.4-126.5-182.3c-76.4-29.1-166.5-4.8-218.2,58.3c-51.4,62.9-59.2,153.5-17.3,223.6
		c41.8,70,123.7,106,203.6,91.6c91-16.4,156.1-98.1,158.4-189.1C704,1262.4,704.1,1261.7,704.1,1261z M372.7,1179.3
		c33.7-56.4,101.1-87.4,165.9-75c69.4,13.3,120.4,70.5,128.8,139H572c-8.3-27.4-32-48-62.6-48c-29.6,0-55.1,20.6-63.1,48h-95
		C353.7,1220.7,361,1198.8,372.7,1179.3z M539.7,1261c-2,38.8-60.7,39.4-60.7,0S537.8,1222.2,539.7,1261z M563.7,1410.8
		c-63.3,22.7-135.1,2.8-177.8-49.1c-19.3-23.7-31.4-52.6-34.6-83h94.9c7.9,27.4,33.7,48,63.2,48c30.7,0,54.4-20.7,62.6-48h95.4
		C660.2,1337.9,621.1,1390.2,563.7,1410.8L563.7,1410.8z	">
<animateTransform  accumulate="none" additive="replace" attributeName="transform" attributeType="XML" calcMode="linear" dur="3s" fill="remove" repeatCount="indefinite" restart="always" type="translate" values="0,1200;0,-1200;">
			</animateTransform>
	</path>
	<path id="_x3C_Path_x3E__00000008830207134642535250000006529025292589917836_" class="st2" d="M1169.2,1243.3
		c-1.1-80.9-50.6-153.4-126.5-182.3c-76.4-29.1-166.5-4.8-218.2,58.3c-51.4,62.9-59.2,153.5-17.3,223.6
		c41.8,70,123.7,106,203.6,91.6c91-16.4,156.1-98.1,158.4-189.1C1169.1,1244.7,1169.2,1244,1169.2,1243.3z M837.8,1161.6
		c33.7-56.4,101.1-87.4,165.9-75c69.4,13.3,120.4,70.5,128.8,139h-95.4c-8.3-27.4-32-48-62.6-48c-29.6,0-55.1,20.6-63.1,48h-95
		C818.8,1203,826.1,1181.1,837.8,1161.6z M1004.8,1243.3c-2,38.8-60.7,39.4-60.7,0S1002.9,1204.5,1004.8,1243.3z M1028.8,1393.1
		c-63.3,22.7-135.1,2.8-177.8-49.1c-19.3-23.7-31.4-52.6-34.6-83h94.9c7.9,27.4,33.7,48,63.2,48c30.7,0,54.4-20.7,62.6-48h95.4
		C1125.3,1320.2,1086.2,1372.5,1028.8,1393.1L1028.8,1393.1z	">
<animateTransform  accumulate="none" additive="replace" attributeName="transform" attributeType="XML" calcMode="linear" dur="2s" fill="remove" repeatCount="indefinite" restart="always" type="translate" values="0,1200;0,-1200;">
			</animateTransform>
	</path>
	<path id="_x3C_Path_x3E__00000108277275834166887640000000828512057639257507_" class="st2" d="M652.5-132.2
		c-1.1-80.9-50.6-153.4-126.5-182.3c-76.4-29.1-166.5-4.8-218.2,58.3c-51.4,62.9-59.2,153.5-17.3,223.6
		c41.8,70,123.7,106,203.6,91.6c91-16.4,156.1-98.1,158.4-189.1C652.4-130.8,652.5-131.5,652.5-132.2z M321.1-213.9
		c33.7-56.4,101.1-87.4,165.9-75c69.4,13.3,120.4,70.5,128.8,139h-95.4c-8.3-27.4-32-48-62.6-48c-29.6,0-55.1,20.6-63.1,48h-95
		C302.1-172.5,309.4-194.4,321.1-213.9z M488.1-132.2c-2,38.8-60.7,39.4-60.7,0S486.2-171,488.1-132.2z M512.1,17.6
		C448.8,40.3,377,20.4,334.3-31.5c-19.3-23.7-31.4-52.6-34.6-83h94.9c7.9,27.4,33.7,48,63.2,48c30.7,0,54.4-20.7,62.6-48h95.4
		C608.6-55.3,569.5-3,512.1,17.6L512.1,17.6z	">
<animateTransform  accumulate="none" additive="replace" attributeName="transform" attributeType="XML" calcMode="linear" dur="1s" fill="remove" repeatCount="indefinite" restart="always" type="translate" values="0,1200;0,-1200;">
			</animateTransform>
	</path>
	<path id="_x3C_Path_x3E__00000020370486559469827710000012664807447790037934_" class="st2" d="M2058.6,786
		c-1.1-80.9-50.6-153.4-126.5-182.3c-76.4-29.1-166.5-4.8-218.2,58.3c-51.4,62.9-59.2,153.5-17.3,223.6
		c41.8,70,123.7,106,203.6,91.6c91-16.4,156.1-98.1,158.4-189.1C2058.5,787.4,2058.6,786.7,2058.6,786z M1727.2,704.3
		c33.7-56.4,101.1-87.4,165.9-75c69.4,13.3,120.4,70.5,128.8,139h-95.4c-8.3-27.4-32-48-62.6-48c-29.6,0-55.1,20.6-63.1,48h-95
		C1708.2,745.7,1715.5,723.8,1727.2,704.3z M1894.2,786c-2,38.8-60.7,39.4-60.7,0S1892.3,747.2,1894.2,786z M1918.2,935.8
		c-63.3,22.7-135.1,2.8-177.8-49.1c-19.3-23.7-31.4-52.6-34.6-83h94.9c7.9,27.4,33.7,48,63.2,48c30.7,0,54.4-20.7,62.6-48h95.4
		C2014.7,862.9,1975.6,915.2,1918.2,935.8L1918.2,935.8z	">
<animateTransform  accumulate="none" additive="replace" attributeName="transform" attributeType="XML" calcMode="linear" dur="2.5s" fill="remove" repeatCount="indefinite" restart="always" type="translate" values="0,1200;0,-1200;">
			</animateTransform>
	</path>
	<path id="_x3C_Path_x3E__00000156549873097555865300000000306987201181495738_" class="st2" d="M66,697.5
		c-1.1-80.9-50.6-153.4-126.5-182.3c-76.4-29.1-166.5-4.8-218.2,58.3c-51.4,62.9-59.2,153.5-17.3,223.6
		c41.8,70,123.7,106,203.6,91.6c91-16.4,156.1-98.1,158.4-189.1C65.9,698.9,66,698.2,66,697.5z M-265.4,615.8
		c33.7-56.4,101.1-87.4,165.9-75c69.4,13.3,120.4,70.5,128.8,139h-95.4c-8.3-27.4-32-48-62.6-48c-29.6,0-55.1,20.6-63.1,48h-95
		C-284.4,657.2-277.1,635.3-265.4,615.8z M-98.4,697.5c-2,38.8-60.7,39.4-60.7,0S-100.3,658.7-98.4,697.5z M-74.4,847.3
		c-63.3,22.7-135.1,2.8-177.8-49.1c-19.3-23.7-31.4-52.6-34.6-83h94.9c7.9,27.4,33.7,48,63.2,48c30.7,0,54.4-20.7,62.6-48h95.4
		C22.1,774.4-17,826.7-74.4,847.3L-74.4,847.3z	">
<animateTransform  accumulate="none" additive="replace" attributeName="transform" attributeType="XML" calcMode="linear" dur="1.5s" fill="remove" repeatCount="indefinite" restart="always" type="translate" values="0,1200;0,-1200;">
			</animateTransform>
	</path>
	<path id="_x3C_Path_x3E__00000098220769727804976340000015302313211952124037_" class="st2" d="M1558.1,805.3
		c-1.1-80.9-50.6-153.4-126.5-182.3c-76.4-29.1-166.5-4.8-218.2,58.3c-51.4,62.9-59.2,153.5-17.3,223.6
		c41.8,70,123.7,106,203.6,91.6c91-16.4,156.1-98.1,158.4-189.1C1558,806.7,1558.1,806,1558.1,805.3z M1226.7,723.6
		c33.7-56.4,101.1-87.4,165.9-75c69.4,13.3,120.4,70.5,128.8,139H1426c-8.3-27.4-32-48-62.6-48c-29.6,0-55.1,20.6-63.1,48h-95
		C1207.7,765,1215,743.1,1226.7,723.6z M1393.7,805.3c-2,38.8-60.7,39.4-60.7,0C1333,765.9,1391.8,766.5,1393.7,805.3z
		 M1417.7,955.1c-63.3,22.7-135.1,2.8-177.8-49.1c-19.3-23.7-31.4-52.6-34.6-83h94.9c7.9,27.4,33.7,48,63.2,48
		c30.7,0,54.4-20.7,62.6-48h95.4C1514.2,882.2,1475.1,934.5,1417.7,955.1L1417.7,955.1z	">
<animateTransform  accumulate="none" additive="replace" attributeName="transform" attributeType="XML" calcMode="linear" dur="1.25s" fill="remove" repeatCount="indefinite" restart="always" type="translate" values="0,1200;0,-1200;">
			</animateTransform>
	</path>
	<path id="_x3C_Path_x3E__00000080178077854808228430000011691125142065941929_" class="st2" d="M1588.2,1358.3
		c-1.1-80.9-50.6-153.4-126.5-182.3c-76.4-29.1-166.5-4.8-218.2,58.3c-51.4,62.9-59.2,153.5-17.3,223.6
		c41.8,70,123.7,106,203.6,91.6c91-16.4,156.1-98.1,158.4-189.1C1588.1,1359.7,1588.2,1359,1588.2,1358.3z M1256.8,1276.6
		c33.7-56.4,101.1-87.4,165.9-75c69.4,13.3,120.4,70.5,128.8,139h-95.4c-8.3-27.4-32-48-62.6-48c-29.6,0-55.1,20.6-63.1,48h-95
		C1237.8,1318,1245.1,1296.1,1256.8,1276.6z M1423.8,1358.3c-2,38.8-60.7,39.4-60.7,0C1363.1,1318.9,1421.9,1319.5,1423.8,1358.3z
		 M1447.8,1508.1c-63.3,22.7-135.1,2.8-177.8-49.1c-19.3-23.7-31.4-52.6-34.6-83h94.9c7.9,27.4,33.7,48,63.2,48
		c30.7,0,54.4-20.7,62.6-48h95.4C1544.3,1435.2,1505.2,1487.5,1447.8,1508.1L1447.8,1508.1z	">
<animateTransform  accumulate="none" additive="replace" attributeName="transform" attributeType="XML" calcMode="linear" dur="3s" fill="remove" repeatCount="indefinite" restart="always" type="translate" values="0,1200;0,-1200;">
			</animateTransform>
	</path>
	<path id="_x3C_Path_x3E__00000096017062597973529170000006927847604958747543_" class="st2" d="M2007,1199
		c-1.1-80.9-50.6-153.4-126.5-182.3c-76.4-29.1-166.5-4.8-218.2,58.3c-51.4,62.9-59.2,153.5-17.3,223.6
		c41.8,70,123.7,106,203.6,91.6c91-16.4,156.1-98.1,158.4-189.1C2006.9,1200.4,2007,1199.7,2007,1199z M1675.6,1117.3
		c33.7-56.4,101.1-87.4,165.9-75c69.4,13.3,120.4,70.5,128.8,139h-95.4c-8.3-27.4-32-48-62.6-48c-29.6,0-55.1,20.6-63.1,48h-95
		C1656.6,1158.7,1663.9,1136.8,1675.6,1117.3z M1842.6,1199c-2,38.8-60.7,39.4-60.7,0S1840.7,1160.2,1842.6,1199z M1866.6,1348.8
		c-63.3,22.7-135.1,2.8-177.8-49.1c-19.3-23.7-31.4-52.6-34.6-83h94.9c7.9,27.4,33.7,48,63.2,48c30.7,0,54.4-20.7,62.6-48h95.4
		C1963.1,1275.9,1924,1328.2,1866.6,1348.8L1866.6,1348.8z	">
<animateTransform  accumulate="none" additive="replace" attributeName="transform" attributeType="XML" calcMode="linear" dur="2s" fill="remove" repeatCount="indefinite" restart="always" type="translate" values="0,1200;0,-1200;">
			</animateTransform>
	</path>
	<path id="_x3C_Path_x3E__00000009571737579278261400000011062478984248755080_" class="st2" d="M2058.6-132.2
		c-1.1-80.9-50.6-153.4-126.5-182.3c-76.4-29.1-166.5-4.8-218.2,58.3c-51.4,62.9-59.2,153.5-17.3,223.6
		c41.8,70,123.7,106,203.6,91.6c91-16.4,156.1-98.1,158.4-189.1C2058.5-130.8,2058.6-131.5,2058.6-132.2z M1727.2-213.9
		c33.7-56.4,101.1-87.4,165.9-75c69.4,13.3,120.4,70.5,128.8,139h-95.4c-8.3-27.4-32-48-62.6-48c-29.6,0-55.1,20.6-63.1,48h-95
		C1708.2-172.5,1715.5-194.4,1727.2-213.9z M1894.2-132.2c-2,38.8-60.7,39.4-60.7,0S1892.3-171,1894.2-132.2z M1918.2,17.6
		c-63.3,22.7-135.1,2.8-177.8-49.1c-19.3-23.7-31.4-52.6-34.6-83h94.9c7.9,27.4,33.7,48,63.2,48c30.7,0,54.4-20.7,62.6-48h95.4
		C2014.7-55.3,1975.6-3,1918.2,17.6L1918.2,17.6z	">
<animateTransform  accumulate="none" additive="replace" attributeName="transform" attributeType="XML" calcMode="linear" dur="1s" fill="remove" repeatCount="indefinite" restart="always" type="translate" values="0,1200;0,-1200;">
			</animateTransform>
	</path>
	<path id="_x3C_Path_x3E__00000021821177877540493770000009057322324927223697_" class="st2" d="M1399.8,80
		c-1.1-80.9-50.6-153.4-126.5-182.3c-76.4-29.1-166.5-4.8-218.2,58.3c-51.4,62.9-59.2,153.5-17.3,223.6
		c41.8,70,123.7,106,203.6,91.6c91-16.4,156.1-98.1,158.4-189.1C1399.7,81.4,1399.8,80.7,1399.8,80z M1068.4-1.7
		c33.7-56.4,101.1-87.4,165.9-75c69.4,13.3,120.4,70.5,128.8,139h-95.4c-8.3-27.4-32-48-62.6-48c-29.6,0-55.1,20.6-63.1,48h-95
		C1049.4,39.7,1056.7,17.8,1068.4-1.7z M1235.4,80c-2,38.8-60.7,39.4-60.7,0S1233.5,41.2,1235.4,80z M1259.4,229.8
		c-63.3,22.7-135.1,2.8-177.8-49.1c-19.3-23.7-31.4-52.6-34.6-83h94.9c7.9,27.4,33.7,48,63.2,48c30.7,0,54.4-20.7,62.6-48h95.4
		C1355.9,156.9,1316.8,209.2,1259.4,229.8L1259.4,229.8z	">
<animateTransform  accumulate="none" additive="replace" attributeName="transform" attributeType="XML" calcMode="linear" dur="2.5s" fill="remove" repeatCount="indefinite" restart="always" type="translate" values="0,1200;0,-1200;">
			</animateTransform>
	</path>
</g>
</svg>
